<svg xmlns="http://www.w3.org/2000/svg" width="16" height="15" viewBox="0 0 16 15">
  <path d="M16 8.437c0 .518-.398.938-.889.938-.49 0-.889-.42-.889-.938 0-3.618-2.791-6.562-6.222-6.562-3.431 0-6.222 2.944-6.222 6.562 0 .518-.398.938-.89.938-.49 0-.888-.42-.888-.938C0 3.777 3.582 0 8 0s8 3.777 8 8.437zm-8 .938c-.98 0-1.778.841-1.778 1.875S7.02 13.125 8 13.125s1.778-.841 1.778-1.875S8.98 9.375 8 9.375c0 0 .98 0 0 0zm3.555 1.875C11.555 13.32 9.964 15 8 15c-1.964 0-3.556-1.68-3.556-3.75 0-1.748 1.133-3.216 2.667-3.632v-2.93c0-.519.398-.938.889-.938.49 0 .889.42.889.937v2.931c1.533.416 2.666 1.884 2.666 3.632z"/>
</svg>