<svg xmlns="http://www.w3.org/2000/svg" width="16" height="14" viewBox="0 0 16 14">
  <path d="M16 7v6.125a.882.882 0 0 1-.889.875H.89A.882.882 0 0 1 0 13.125V7L3.555.875c0-.483.398-.875.89-.875h7.11c.491 0 .89.392.89.875zM2.556 6.125h3.222c.245 0 .444.196.444.437V7c0 1.022.896 1.843 1.956 1.741.923-.088 1.6-.906 1.6-1.819v-.36c0-.241.199-.437.444-.437h3.222l-2.54-4.375H5.096zm11.666 5.687V7.875H11.44A3.544 3.544 0 0 1 8 10.5a3.544 3.544 0 0 1-3.439-2.625H1.778v3.937c0 .242.199.438.444.438h11.556a.441.441 0 0 0 .444-.438z"/>
</svg>