<svg xmlns="http://www.w3.org/2000/svg" width="16" height="16" viewBox="0 0 16 16">
  <path d="M16 7.847v.306a1 1 0 0 1-.836.986l-1.325.221a5.957 5.957 0 0 1-.762 1.826l.738 1.034a.99.99 0 0 1-.105 1.276l-.214.214a.99.99 0 0 1-1.276.105l-1.034-.738a5.96 5.96 0 0 1-1.826.762l-.22 1.325a1 1 0 0 1-.987.836h-.306a1 1 0 0 1-.986-.836L6.64 13.84a5.96 5.96 0 0 1-1.827-.762l-1.033.738a.99.99 0 0 1-1.276-.105l-.214-.214a.99.99 0 0 1-.106-1.276l.738-1.034a5.96 5.96 0 0 1-.761-1.826L.836 9.14A1 1 0 0 1 0 8.152v-.306a1 1 0 0 1 .836-.986L2.16 6.64a5.958 5.958 0 0 1 .761-1.827L2.184 3.78a.99.99 0 0 1 .106-1.276l.214-.214a.99.99 0 0 1 1.276-.106l1.033.738a5.958 5.958 0 0 1 1.827-.761L6.86.835A1 1 0 0 1 7.848 0h.306a1 1 0 0 1 .986.835l.221 1.326a5.957 5.957 0 0 1 1.826.761l1.034-.738a.99.99 0 0 1 1.276.106l.214.214a.99.99 0 0 1 .105 1.276l-.738 1.033c.35.555.61 1.17.762 1.827l1.325.22a1 1 0 0 1 .836.987zM11 8a3 3 0 1 0-6 0 3 3 0 0 0 6 0z"/>
</svg>