<?xml version="1.0" encoding="UTF-8"?><!DOCTYPE svg PUBLIC "-//W3C//DTD SVG 1.1//EN" "http://www.w3.org/Graphics/SVG/1.1/DTD/svg11.dtd"><svg xmlns="http://www.w3.org/2000/svg"><symbol id="icon-analitics" viewBox="0 0 16 10">
    <path d="M6 10a.998.998 0 0 1-.8-.401l-2.153-2.87-1.216 1.825a1 1 0 0 1-1.664-1.11l2-3c.18-.27.48-.435.805-.445.327.005.633.14.827.4l2.03 2.706 2.276-4.553A1.001 1.001 0 0 1 9.799 2.4l2.03 2.705L14.104.552a1 1 0 1 1 1.789.895l-3 6a1 1 0 0 1-1.694.152L9.17 4.894 6.894 9.447a1 1 0 0 1-.895.552z"/>
</symbol><symbol id="icon-calendar" viewBox="0 0 16 16">
    <path d="M16 15a1 1 0 0 1-1 1H1a1 1 0 0 1-1-1V1a1 1 0 0 1 1-1h14a1 1 0 0 1 1 1zm-2-1.5v-9a.5.5 0 0 0-.5-.5h-11a.5.5 0 0 0-.5.5v9a.5.5 0 0 0 .5.5h11a.5.5 0 0 0 .5-.5zm-3-3v1a.5.5 0 0 1-.5.5h-5a.5.5 0 0 1-.5-.5v-1a.5.5 0 0 1 .5-.5H7V8H5.5a.5.5 0 0 1-.5-.5v-1a.5.5 0 0 1 .5-.5h3a.5.5 0 0 1 .5.5V10h1.5a.5.5 0 0 1 .5.5z"/>
</symbol><symbol id="icon-clock" viewBox="0 0 16 16">
    <path d="M16 8A8 8 0 1 1 0 8a8 8 0 0 1 16 0zm-2 0c0-3.308-2.692-6-6-6S2 4.692 2 8s2.692 6 6 6 6-2.692 6-6zm-3 .99v.02a.99.99 0 0 1-.99.99H6.99A.99.99 0 0 1 6 9.01V5.99A.99.99 0 0 1 6.99 5h.02a.99.99 0 0 1 .99.99V7.5a.5.5 0 0 0 .5.5h1.51a.99.99 0 0 1 .99.99z"/>
</symbol><symbol id="icon-facebook" viewBox="0 0 10 19">
    <title>
        facebook
    </title>
    <path d="M9.766.157v2.946H8.014c-.64 0-1.071.134-1.295.402-.223.268-.335.67-.335 1.205v2.11h3.27l-.435 3.303H6.384v8.471H2.97v-8.47H.123V6.82H2.97V4.387c0-1.384.387-2.457 1.161-3.22C4.904.404 5.934.023 7.222.023c1.093 0 1.941.045 2.544.134z" fill-rule="evenodd"/>
</symbol><symbol id="icon-home" viewBox="0 0 16 15">
    <path d="M16 8.437c0 .518-.398.938-.889.938-.49 0-.889-.42-.889-.938 0-3.618-2.791-6.562-6.222-6.562-3.431 0-6.222 2.944-6.222 6.562 0 .518-.398.938-.89.938-.49 0-.888-.42-.888-.938C0 3.777 3.582 0 8 0s8 3.777 8 8.437zm-8 .938c-.98 0-1.778.841-1.778 1.875S7.02 13.125 8 13.125s1.778-.841 1.778-1.875S8.98 9.375 8 9.375c0 0 .98 0 0 0zm3.555 1.875C11.555 13.32 9.964 15 8 15c-1.964 0-3.556-1.68-3.556-3.75 0-1.748 1.133-3.216 2.667-3.632v-2.93c0-.519.398-.938.889-.938.49 0 .889.42.889.937v2.931c1.533.416 2.666 1.884 2.666 3.632z"/>
</symbol><symbol id="icon-inbox" viewBox="0 0 16 14">
    <path d="M16 7v6.125a.882.882 0 0 1-.889.875H.89a.882.882 0 0 1-.89-.875V7L3.555.875c0-.483.398-.875.89-.875h7.11c.491 0 .89.392.89.875zM2.556 6.125h3.222a.44.44 0 0 1 .444.437V7c0 1.022.896 1.843 1.956 1.741.923-.088 1.6-.906 1.6-1.819v-.36a.44.44 0 0 1 .444-.437h3.222l-2.54-4.375H5.096zm11.666 5.687V7.875H11.44A3.544 3.544 0 0 1 8 10.5a3.544 3.544 0 0 1-3.439-2.625H1.778v3.937c0 .242.199.438.444.438h11.556a.441.441 0 0 0 .444-.438z"/>
</symbol><symbol id="icon-settings" viewBox="0 0 16 16">
    <path d="M16 7.847v.306a1 1 0 0 1-.836.986l-1.325.221a5.957 5.957 0 0 1-.762 1.826l.738 1.034a.99.99 0 0 1-.105 1.276l-.214.214a.99.99 0 0 1-1.276.105l-1.034-.738a5.96 5.96 0 0 1-1.826.762l-.22 1.325a1 1 0 0 1-.987.836h-.306a1 1 0 0 1-.986-.836L6.64 13.84a5.96 5.96 0 0 1-1.827-.762l-1.033.738a.99.99 0 0 1-1.276-.105l-.214-.214a.99.99 0 0 1-.106-1.276l.738-1.034a5.96 5.96 0 0 1-.761-1.826L.836 9.14A1 1 0 0 1 0 8.152v-.306a1 1 0 0 1 .836-.986l1.324-.22a5.958 5.958 0 0 1 .761-1.827L2.184 3.78a.99.99 0 0 1 .106-1.276l.214-.214a.99.99 0 0 1 1.276-.106l1.033.738a5.958 5.958 0 0 1 1.827-.761L6.86.835A1 1 0 0 1 7.848 0h.306a1 1 0 0 1 .986.835l.221 1.326a5.957 5.957 0 0 1 1.826.761l1.034-.738a.99.99 0 0 1 1.276.106l.214.214a.99.99 0 0 1 .105 1.276l-.738 1.033c.35.555.61 1.17.762 1.827l1.325.22a1 1 0 0 1 .836.987zM11 8a3 3 0 1 0-6 0 3 3 0 0 0 6 0z"/>
</symbol></svg>